<?xml version="1.0" encoding="UTF-8"?>
<svg width="16px" height="16px" viewBox="0 0 16 16" version="1.1" xmlns="http://www.w3.org/2000/svg" xmlns:xlink="http://www.w3.org/1999/xlink">
    <!-- Generator: Sketch 45.2 (43514) - http://www.bohemiancoding.com/sketch -->
    <title>Page 1</title>
    <desc>Created with Sketch.</desc>
    <defs></defs>
    <g id="PC" stroke="none" stroke-width="1" fill="none" fill-rule="evenodd">
        <g id="_pohodlnenakupy_homepage" transform="translate(-1030.000000, -67.000000)" fill="#38b6c2">
            <g id="search" transform="translate(636.000000, 52.000000)">
                <g id="Page-1" transform="translate(394.000000, 15.000000)">
                    <path d="M1.45454545,6.58109091 C1.45454545,3.75418182 3.78545455,1.45454545 6.65054545,1.45454545 C9.51563636,1.45454545 11.8461818,3.75418182 11.8461818,6.58109091 C11.8461818,9.408 9.51563636,11.708 6.65054545,11.708 C3.78545455,11.708 1.45454545,9.408 1.45454545,6.58109091 M15.0672727,14.7658182 L11.4890909,11.0821818 C12.6090909,9.90363636 13.3007273,8.32254545 13.3007273,6.58109091 C13.3007273,2.95236364 10.3174545,0 6.65054545,0 C2.98327273,0 0,2.95236364 0,6.58109091 C0,10.2098182 2.98327273,13.1625455 6.65054545,13.1625455 C8.03163636,13.1625455 9.31527273,12.7429091 10.3792727,12.0272727 L14.0236364,15.7792727 C14.1661818,15.9261818 14.356,16 14.5454545,16 C14.728,16 14.9109091,15.9316364 15.0523636,15.7941818 C15.3403636,15.5145455 15.3469091,15.0541818 15.0672727,14.7658182" id="Fill-1"></path>
                </g>
            </g>
        </g>
    </g>
</svg>